<?xml version="1.0" encoding="UTF-8"?>
<!--Generator: Apple Native CoreSVG 149-->
<!DOCTYPE svg
PUBLIC "-//W3C//DTD SVG 1.1//EN"
       "http://www.w3.org/Graphics/SVG/1.1/DTD/svg11.dtd">
<svg version="1.1" xmlns="http://www.w3.org/2000/svg" xmlns:xlink="http://www.w3.org/1999/xlink" width="3300" height="2200">
 <!--glyph: "uni100467.medium", point size: 100.000000, font version: "Version 16.0d18e1", template writer version: "8"-->
 <g id="Notes">
  <rect height="2200" id="artboard" style="fill:white;opacity:1" width="3300" x="0" y="0"/>
  <line id="" style="fill:none;stroke:black;opacity:1;stroke-width:0.5;" x1="263" x2="3036" y1="292" y2="292"/>
  <text style="stroke:none;fill:black;font-family:-apple-system,&quot;SF Pro Display&quot;,&quot;SF Pro Text&quot;,Helvetica,sans-serif;font-weight:bold;" transform="matrix(1 0 0 1 263 322)">Weight/Scale Variations</text>
  <text style="stroke:none;fill:black;font-family:-apple-system,&quot;SF Pro Display&quot;,&quot;SF Pro Text&quot;,Helvetica,sans-serif;text-anchor:middle;" transform="matrix(1 0 0 1 559.711 322)">Ultralight</text>
  <text style="stroke:none;fill:black;font-family:-apple-system,&quot;SF Pro Display&quot;,&quot;SF Pro Text&quot;,Helvetica,sans-serif;text-anchor:middle;" transform="matrix(1 0 0 1 856.422 322)">Thin</text>
  <text style="stroke:none;fill:black;font-family:-apple-system,&quot;SF Pro Display&quot;,&quot;SF Pro Text&quot;,Helvetica,sans-serif;text-anchor:middle;" transform="matrix(1 0 0 1 1153.13 322)">Light</text>
  <text style="stroke:none;fill:black;font-family:-apple-system,&quot;SF Pro Display&quot;,&quot;SF Pro Text&quot;,Helvetica,sans-serif;text-anchor:middle;" transform="matrix(1 0 0 1 1449.84 322)">Regular</text>
  <text style="stroke:none;fill:black;font-family:-apple-system,&quot;SF Pro Display&quot;,&quot;SF Pro Text&quot;,Helvetica,sans-serif;text-anchor:middle;" transform="matrix(1 0 0 1 1746.56 322)">Medium</text>
  <text style="stroke:none;fill:black;font-family:-apple-system,&quot;SF Pro Display&quot;,&quot;SF Pro Text&quot;,Helvetica,sans-serif;text-anchor:middle;" transform="matrix(1 0 0 1 2043.27 322)">Semibold</text>
  <text style="stroke:none;fill:black;font-family:-apple-system,&quot;SF Pro Display&quot;,&quot;SF Pro Text&quot;,Helvetica,sans-serif;text-anchor:middle;" transform="matrix(1 0 0 1 2339.98 322)">Bold</text>
  <text style="stroke:none;fill:black;font-family:-apple-system,&quot;SF Pro Display&quot;,&quot;SF Pro Text&quot;,Helvetica,sans-serif;text-anchor:middle;" transform="matrix(1 0 0 1 2636.69 322)">Heavy</text>
  <text style="stroke:none;fill:black;font-family:-apple-system,&quot;SF Pro Display&quot;,&quot;SF Pro Text&quot;,Helvetica,sans-serif;text-anchor:middle;" transform="matrix(1 0 0 1 2933.4 322)">Black</text>
  <line id="" style="fill:none;stroke:black;opacity:1;stroke-width:0.5;" x1="263" x2="3036" y1="1903" y2="1903"/>
  <g id="" transform="matrix(1 0 0 1 263 1933)">
   <path d="M9.24805 0.830078C13.5547 0.830078 17.1387-2.74414 17.1387-7.05078C17.1387-11.3574 13.5449-14.9316 9.23828-14.9316C4.94141-14.9316 1.36719-11.3574 1.36719-7.05078C1.36719-2.74414 4.95117 0.830078 9.24805 0.830078ZM9.24805-0.654297C5.70312-0.654297 2.87109-3.49609 2.87109-7.05078C2.87109-10.6055 5.69336-13.4473 9.23828-13.4473C12.793-13.4473 15.6348-10.6055 15.6445-7.05078C15.6543-3.49609 12.8027-0.654297 9.24805-0.654297ZM6.39648-6.31836L8.50586-6.31836L8.50586-4.19922C8.50586-3.75977 8.79883-3.45703 9.22852-3.45703C9.67773-3.45703 9.9707-3.75977 9.9707-4.19922L9.9707-6.31836L12.0996-6.31836C12.5391-6.31836 12.8418-6.61133 12.8418-7.04102C12.8418-7.48047 12.5391-7.7832 12.0996-7.7832L9.9707-7.7832L9.9707-9.89258C9.9707-10.3418 9.67773-10.6445 9.22852-10.6445C8.79883-10.6445 8.50586-10.3418 8.50586-9.89258L8.50586-7.7832L6.39648-7.7832C5.94727-7.7832 5.64453-7.48047 5.64453-7.04102C5.64453-6.61133 5.94727-6.31836 6.39648-6.31836Z"/>
  </g>
  <g id="" transform="matrix(1 0 0 1 281.506 1933)">
   <path d="M11.709 2.91016C17.1582 2.91016 21.6699-1.61133 21.6699-7.05078C21.6699-12.5 17.1484-17.0117 11.6992-17.0117C6.25977-17.0117 1.74805-12.5 1.74805-7.05078C1.74805-1.61133 6.26953 2.91016 11.709 2.91016ZM11.709 1.25C7.09961 1.25 3.41797-2.44141 3.41797-7.05078C3.41797-11.6602 7.08984-15.3516 11.6992-15.3516C16.3086-15.3516 20-11.6602 20.0098-7.05078C20.0195-2.44141 16.3184 1.25 11.709 1.25ZM7.98828-6.23047L10.8789-6.23047L10.8789-3.32031C10.8789-2.83203 11.2109-2.5 11.6895-2.5C12.1777-2.5 12.5195-2.83203 12.5195-3.32031L12.5195-6.23047L15.4297-6.23047C15.918-6.23047 16.25-6.5625 16.25-7.04102C16.25-7.5293 15.918-7.87109 15.4297-7.87109L12.5195-7.87109L12.5195-10.7617C12.5195-11.2695 12.1777-11.6016 11.6895-11.6016C11.2109-11.6016 10.8789-11.2598 10.8789-10.7617L10.8789-7.87109L7.98828-7.87109C7.48047-7.87109 7.14844-7.5293 7.14844-7.04102C7.14844-6.5625 7.49023-6.23047 7.98828-6.23047Z"/>
  </g>
  <g id="" transform="matrix(1 0 0 1 304.924 1933)">
   <path d="M14.9707 5.66406C21.9336 5.66406 27.6953-0.0976562 27.6953-7.05078C27.6953-14.0137 21.9238-19.7754 14.9609-19.7754C8.00781-19.7754 2.25586-14.0137 2.25586-7.05078C2.25586-0.0976562 8.01758 5.66406 14.9707 5.66406ZM14.9707 3.84766C8.93555 3.84766 4.08203-1.01562 4.08203-7.05078C4.08203-13.0957 8.92578-17.9492 14.9609-17.9492C21.0059-17.9492 25.8594-13.0957 25.8691-7.05078C25.8789-1.01562 21.0156 3.84766 14.9707 3.84766ZM10.0586-6.14258L14.0625-6.14258L14.0625-2.12891C14.0625-1.5918 14.4336-1.2207 14.9512-1.2207C15.4883-1.2207 15.8594-1.5918 15.8594-2.12891L15.8594-6.14258L19.8828-6.14258C20.4102-6.14258 20.791-6.51367 20.791-7.03125C20.791-7.56836 20.4199-7.94922 19.8828-7.94922L15.8594-7.94922L15.8594-11.9531C15.8594-12.5098 15.4883-12.8809 14.9512-12.8809C14.4336-12.8809 14.0625-12.5 14.0625-11.9531L14.0625-7.94922L10.0586-7.94922C9.50195-7.94922 9.13086-7.56836 9.13086-7.03125C9.13086-6.51367 9.51172-6.14258 10.0586-6.14258Z"/>
  </g>
  <text style="stroke:none;fill:black;font-family:-apple-system,&quot;SF Pro Display&quot;,&quot;SF Pro Text&quot;,Helvetica,sans-serif;font-weight:bold;" transform="matrix(1 0 0 1 263 1953)">Design Variations</text>
  <text style="stroke:none;fill:black;font-family:-apple-system,&quot;SF Pro Display&quot;,&quot;SF Pro Text&quot;,Helvetica,sans-serif;" transform="matrix(1 0 0 1 263 1971)">Symbols are supported in up to nine weights and three scales.</text>
  <text style="stroke:none;fill:black;font-family:-apple-system,&quot;SF Pro Display&quot;,&quot;SF Pro Text&quot;,Helvetica,sans-serif;" transform="matrix(1 0 0 1 263 1989)">For optimal layout with text and other symbols, vertically align</text>
  <text style="stroke:none;fill:black;font-family:-apple-system,&quot;SF Pro Display&quot;,&quot;SF Pro Text&quot;,Helvetica,sans-serif;" transform="matrix(1 0 0 1 263 2007)">symbols with the adjacent text.</text>
  <line id="" style="fill:none;stroke:#00AEEF;stroke-width:0.5;opacity:1.0;" x1="776" x2="776" y1="1919" y2="1933"/>
  <g id="" transform="matrix(1 0 0 1 776 1933)">
   <path d="M3.31055 0.126953C3.82812 0.126953 4.08203-0.0683594 4.26758-0.605469L5.52734-4.0625L11.2891-4.0625L12.5488-0.605469C12.7344-0.0683594 12.9883 0.126953 13.4961 0.126953C14.0137 0.126953 14.3457-0.185547 14.3457-0.673828C14.3457-0.839844 14.3164-0.986328 14.2383-1.20117L9.6582-13.3887C9.43359-13.9941 9.0332-14.2871 8.4082-14.2871C7.80273-14.2871 7.39258-13.9941 7.17773-13.3984L2.59766-1.19141C2.51953-0.976562 2.49023-0.830078 2.49023-0.664062C2.49023-0.175781 2.80273 0.126953 3.31055 0.126953ZM6.00586-5.53711L8.37891-12.1094L8.42773-12.1094L10.8008-5.53711Z"/>
  </g>
  <line id="" style="fill:none;stroke:#00AEEF;stroke-width:0.5;opacity:1.0;" x1="792.836" x2="792.836" y1="1919" y2="1933"/>
  <text style="stroke:none;fill:black;font-family:-apple-system,&quot;SF Pro Display&quot;,&quot;SF Pro Text&quot;,Helvetica,sans-serif;font-weight:bold;" transform="matrix(1 0 0 1 776 1953)">Margins</text>
  <text style="stroke:none;fill:black;font-family:-apple-system,&quot;SF Pro Display&quot;,&quot;SF Pro Text&quot;,Helvetica,sans-serif;" transform="matrix(1 0 0 1 776 1971)">Leading and trailing margins on the left and right side of each symbol</text>
  <text style="stroke:none;fill:black;font-family:-apple-system,&quot;SF Pro Display&quot;,&quot;SF Pro Text&quot;,Helvetica,sans-serif;" transform="matrix(1 0 0 1 776 1989)">can be adjusted by modifying the x-location of the margin guidelines.</text>
  <text style="stroke:none;fill:black;font-family:-apple-system,&quot;SF Pro Display&quot;,&quot;SF Pro Text&quot;,Helvetica,sans-serif;" transform="matrix(1 0 0 1 776 2007)">Modifications are automatically applied proportionally to all</text>
  <text style="stroke:none;fill:black;font-family:-apple-system,&quot;SF Pro Display&quot;,&quot;SF Pro Text&quot;,Helvetica,sans-serif;" transform="matrix(1 0 0 1 776 2025)">scales and weights.</text>
  <g id="" transform="matrix(1 0 0 1 1289 1933)">
   <path d="M2.8418 1.86523L4.54102 3.57422C5.40039 4.44336 6.38672 4.38477 7.31445 3.35938L17.4902-7.85156C17.7539-7.76367 18.0273-7.7832 18.3398-7.8418L19.4043-8.03711L20.0684-7.36328L20.0293-6.80664C19.9902-6.30859 20.1172-5.92773 20.6055-5.44922L21.3672-4.70703C21.8457-4.22852 22.4609-4.19922 22.9297-4.66797L25.8398-7.58789C26.3086-8.05664 26.2891-8.65234 25.8105-9.13086L25.0391-9.89258C24.5605-10.3711 24.1895-10.5273 23.7109-10.4883L23.1348-10.4395L22.4902-11.0742L22.7344-12.1973C22.8613-12.7637 22.7051-13.2031 22.1191-13.7891L19.9219-15.9766C16.582-19.2969 12.1484-19.2188 9.25781-16.3281C8.83789-15.918 8.80859-15.3418 9.04297-14.9512C9.27734-14.5898 9.73633-14.3555 10.3809-14.5215C11.8457-14.8633 13.3691-14.9219 14.7949-13.9844L14.209-12.5293C14.0137-12.0508 13.9844-11.6504 14.1113-11.2891L3.04688-0.898438C2.06055 0.0195312 1.98242 0.996094 2.8418 1.86523ZM10.752-15.957C13.1836-17.7344 16.4746-17.4316 18.7012-15.2051L21.1328-12.793C21.3672-12.5586 21.4062-12.373 21.3379-12.0312L21.0156-10.5469L22.5195-9.0625L23.5059-9.12109C23.7598-9.13086 23.8379-9.11133 24.0332-8.91602L24.6094-8.33984L22.168-5.89844L21.5918-6.47461C21.3965-6.66992 21.3672-6.74805 21.377-7.01172L21.4453-7.98828L19.9512-9.47266L18.4277-9.21875C18.1055-9.15039 17.959-9.17969 17.7148-9.41406L15.7129-11.416C15.459-11.6504 15.4297-11.8164 15.5859-12.1875L16.4648-14.2773C14.9023-15.7324 12.8711-16.3574 10.8398-15.7617C10.6836-15.7227 10.625-15.8496 10.752-15.957ZM5.27344 2.30469L4.10156 1.14258C3.63281 0.683594 3.74023 0.341797 4.14062-0.0195312L14.9512-10.1953L16.416-8.71094L6.42578 2.27539C6.07422 2.67578 5.74219 2.77344 5.27344 2.30469Z"/>
  </g>
  <text style="stroke:none;fill:black;font-family:-apple-system,&quot;SF Pro Display&quot;,&quot;SF Pro Text&quot;,Helvetica,sans-serif;font-weight:bold;" transform="matrix(1 0 0 1 1289 1953)">Exporting</text>
  <text style="stroke:none;fill:black;font-family:-apple-system,&quot;SF Pro Display&quot;,&quot;SF Pro Text&quot;,Helvetica,sans-serif;" transform="matrix(1 0 0 1 1289 1971)">Symbols should be outlined when exporting to ensure the</text>
  <text style="stroke:none;fill:black;font-family:-apple-system,&quot;SF Pro Display&quot;,&quot;SF Pro Text&quot;,Helvetica,sans-serif;" transform="matrix(1 0 0 1 1289 1989)">design is preserved when submitting to Xcode.</text>
  <text id="template-version" style="stroke:none;fill:black;font-family:-apple-system,&quot;SF Pro Display&quot;,&quot;SF Pro Text&quot;,Helvetica,sans-serif;text-anchor:end;" transform="matrix(1 0 0 1 3036 1933)">Template v.2.0</text>
  <text style="stroke:none;fill:black;font-family:-apple-system,&quot;SF Pro Display&quot;,&quot;SF Pro Text&quot;,Helvetica,sans-serif;text-anchor:end;" transform="matrix(1 0 0 1 3036 1951)">Requires Xcode 12 or greater</text>
  <text style="stroke:none;fill:black;font-family:-apple-system,&quot;SF Pro Display&quot;,&quot;SF Pro Text&quot;,Helvetica,sans-serif;text-anchor:end;" transform="matrix(1 0 0 1 3036 1969)">Generated from pip.exit</text>
  <text style="stroke:none;fill:black;font-family:-apple-system,&quot;SF Pro Display&quot;,&quot;SF Pro Text&quot;,Helvetica,sans-serif;text-anchor:end;" transform="matrix(1 0 0 1 3036 1987)">Typeset at 100 points</text>
  <text style="stroke:none;fill:black;font-family:-apple-system,&quot;SF Pro Display&quot;,&quot;SF Pro Text&quot;,Helvetica,sans-serif;" transform="matrix(1 0 0 1 263 726)">Small</text>
  <text style="stroke:none;fill:black;font-family:-apple-system,&quot;SF Pro Display&quot;,&quot;SF Pro Text&quot;,Helvetica,sans-serif;" transform="matrix(1 0 0 1 263 1156)">Medium</text>
  <text style="stroke:none;fill:black;font-family:-apple-system,&quot;SF Pro Display&quot;,&quot;SF Pro Text&quot;,Helvetica,sans-serif;" transform="matrix(1 0 0 1 263 1586)">Large</text>
 </g>
 <g id="Guides">
  <g id="H-reference" style="fill:#27AAE1;stroke:none;" transform="matrix(1 0 0 1 339 696)">
   <path d="M0.976562 0L3.66211 0L12.9883-24.4629L45.752-24.4629L55.127 0L57.7637 0L30.6152-70.459L28.125-70.459ZM29.3457-67.1387L29.4434-67.1387L44.873-26.709L13.8672-26.709Z"/>
  </g>
  <line id="Baseline-S" style="fill:none;stroke:#27AAE1;opacity:1;stroke-width:0.5;" x1="263" x2="3036" y1="696" y2="696"/>
  <line id="Capline-S" style="fill:none;stroke:#27AAE1;opacity:1;stroke-width:0.5;" x1="263" x2="3036" y1="625.541" y2="625.541"/>
  <g id="H-reference" style="fill:#27AAE1;stroke:none;" transform="matrix(1 0 0 1 339 1126)">
   <path d="M0.976562 0L3.66211 0L12.9883-24.4629L45.752-24.4629L55.127 0L57.7637 0L30.6152-70.459L28.125-70.459ZM29.3457-67.1387L29.4434-67.1387L44.873-26.709L13.8672-26.709Z"/>
  </g>
  <line id="Baseline-M" style="fill:none;stroke:#27AAE1;opacity:1;stroke-width:0.5;" x1="263" x2="3036" y1="1126" y2="1126"/>
  <line id="Capline-M" style="fill:none;stroke:#27AAE1;opacity:1;stroke-width:0.5;" x1="263" x2="3036" y1="1055.54" y2="1055.54"/>
  <g id="H-reference" style="fill:#27AAE1;stroke:none;" transform="matrix(1 0 0 1 339 1556)">
   <path d="M0.976562 0L3.66211 0L12.9883-24.4629L45.752-24.4629L55.127 0L57.7637 0L30.6152-70.459L28.125-70.459ZM29.3457-67.1387L29.4434-67.1387L44.873-26.709L13.8672-26.709Z"/>
  </g>
  <line id="Baseline-L" style="fill:none;stroke:#27AAE1;opacity:1;stroke-width:0.5;" x1="263" x2="3036" y1="1556" y2="1556"/>
  <line id="Capline-L" style="fill:none;stroke:#27AAE1;opacity:1;stroke-width:0.5;" x1="263" x2="3036" y1="1485.54" y2="1485.54"/>
  <line id="left-margin" style="fill:none;stroke:#00AEEF;stroke-width:0.5;opacity:1.0;" x1="1374.14" x2="1374.14" y1="1030.79" y2="1150.12"/>
  <line id="right-margin" style="fill:none;stroke:#00AEEF;stroke-width:0.5;opacity:1.0;" x1="1525.55" x2="1525.55" y1="1030.79" y2="1150.12"/>
 </g>
 <g id="Symbols">
  <g id="Black-L" transform="matrix(1 0 0 1 2829.4 1556)">
   <path d="M39.9902 5.07812L78.2715 5.07812L78.2715 14.1602C78.2715 29.3457 86.9141 37.9883 102.148 37.9883L168.066 37.9883C183.301 37.9883 191.943 29.3457 191.943 14.1602L191.943-28.8574C191.943-44.0918 183.301-52.6855 168.066-52.6855L157.471-52.6855L157.471-84.5703C157.471-99.7559 148.779-108.35 133.545-108.35L39.9902-108.35C24.707-108.35 16.0645-99.7559 16.0645-84.5703L16.0645-18.7012C16.0645-3.51562 24.707 5.07812 39.9902 5.07812ZM42.6758-15.1367C38.4766-15.1367 36.3281-17.041 36.3281-21.582L36.3281-81.6895C36.3281-86.2305 38.4766-88.1348 42.6758-88.1348L130.811-88.1348C135.059-88.1348 137.207-86.2305 137.207-81.6895L137.207-52.6855L102.148-52.6855C86.9141-52.6855 78.2715-44.0918 78.2715-28.8574L78.2715-15.1367ZM56.3477-51.6113L61.377-56.6406L69.3359-48.6328C70.3613-47.5586 71.7773-46.9727 73.4375-46.9727C76.8066-46.9727 79.3945-49.4141 79.3945-52.4902C79.3945-54.2969 78.7109-55.7617 77.5391-56.8848L69.5801-64.8438L74.8047-70.0684C77.9297-73.1934 76.3184-78.9062 70.5566-79.3945L51.0254-81.2012C47.168-81.543 44.7266-79.0039 44.9707-75.1465L46.7285-55.6152C47.2168-49.7559 52.9297-48.1445 56.3477-51.6113Z"/>
  </g>
  <g id="Heavy-L" transform="matrix(1 0 0 1 2534.37 1556)">
   <path d="M38.8184 4.24805L77.9785 4.24805L77.9785 13.3789C77.9785 27.9297 86.084 35.9863 100.732 35.9863L165.82 35.9863C180.42 35.9863 188.574 27.8809 188.574 13.3789L188.574-29.248C188.574-43.7988 180.42-51.9043 165.82-51.9043L154.785-51.9043L154.785-83.7402C154.785-98.2422 146.631-106.348 132.031-106.348L38.8184-106.348C24.1699-106.348 16.0645-98.291 16.0645-83.7402L16.0645-18.4082C16.0645-3.85742 24.1699 4.24805 38.8184 4.24805ZM40.918-13.2812C36.084-13.2812 33.5938-15.5762 33.5938-20.7031L33.5938-81.4453C33.5938-86.5723 36.084-88.8672 40.918-88.8672L129.883-88.8672C134.717-88.8672 137.256-86.5723 137.256-81.4453L137.256-51.9043L100.732-51.9043C86.084-51.9043 77.9785-43.7988 77.9785-29.248L77.9785-13.2812ZM53.7598-52.3438L59.0332-57.6172L67.8223-48.7793C68.7988-47.7539 70.1172-47.2656 71.582-47.2656C74.6582-47.2656 77.002-49.4629 77.002-52.2949C77.002-53.9062 76.416-55.2246 75.3418-56.2988L66.5039-65.0879L71.9727-70.5566C74.9512-73.584 73.3887-78.8086 68.0176-79.3457L48.291-81.4941C44.6777-81.8848 42.2852-79.4434 42.627-75.8301L44.7266-56.0547C45.2148-50.6348 50.4883-49.0234 53.7598-52.3438Z"/>
  </g>
  <g id="Bold-L" transform="matrix(1 0 0 1 2239.56 1556)">
   <path d="M37.5 3.27148L77.6367 3.27148L77.6367 12.4512C77.6367 26.2695 85.2051 33.7402 99.1211 33.7402L163.33 33.7402C177.246 33.7402 184.766 26.2695 184.766 12.4512L184.766-29.6875C184.766-43.457 177.246-50.9766 163.33-50.9766L151.758-50.9766L151.758-82.8125C151.758-96.582 144.189-104.102 130.322-104.102L37.5-104.102C23.584-104.102 16.0645-96.6309 16.0645-82.8125L16.0645-18.0176C16.0645-4.19922 23.584 3.27148 37.5 3.27148ZM38.9648-11.1816C33.4473-11.1816 30.5176-13.916 30.5176-19.6777L30.5176-81.1523C30.5176-86.9141 33.4473-89.6484 38.9648-89.6484L128.857-89.6484C134.326-89.6484 137.305-86.9141 137.305-81.1523L137.305-50.9766L99.1211-50.9766C85.2051-50.9766 77.6367-43.5059 77.6367-29.6875L77.6367-11.1816ZM50.8301-53.1738L56.3965-58.7402L66.1133-48.9746C67.0898-47.998 68.2129-47.5586 69.5312-47.5586C72.3145-47.5586 74.3652-49.5117 74.3652-52.0508C74.3652-53.4668 73.877-54.6875 72.8516-55.6641L63.0371-65.4297L68.75-71.1426C71.6797-74.0723 70.0195-78.7109 65.1855-79.2969L45.2148-81.8359C41.8945-82.2266 39.6484-79.8828 39.9902-76.5625L42.4805-56.5918C43.0176-51.6113 47.7051-50 50.8301-53.1738Z"/>
  </g>
  <g id="Semibold-L" transform="matrix(1 0 0 1 1944.15 1556)">
   <path d="M36.6211 2.58789L77.4414 2.58789L77.4414 11.8164C77.4414 25.1465 84.5703 32.2266 97.998 32.2266L161.621 32.2266C175.049 32.2266 182.178 25.1465 182.178 11.8164L182.178-29.9805C182.178-43.2617 175.049-50.3418 161.621-50.3418L149.658-50.3418L149.658-82.1289C149.658-95.459 142.529-102.539 129.102-102.539L36.6211-102.539C23.1445-102.539 16.0645-95.5078 16.0645-82.1289L16.0645-17.7734C16.0645-4.44336 23.1445 2.58789 36.6211 2.58789ZM37.5977-9.7168C31.6406-9.7168 28.418-12.793 28.418-18.9941L28.418-80.9082C28.418-87.1582 31.6406-90.2344 37.5977-90.2344L128.125-90.2344C134.033-90.2344 137.354-87.1582 137.354-80.9082L137.354-50.3418L97.998-50.3418C84.5703-50.3418 77.4414-43.3105 77.4414-29.9805L77.4414-9.7168ZM48.7793-53.7109L54.541-59.5215L64.9902-49.0723C65.918-48.1445 66.8945-47.7539 68.1152-47.7539C70.6543-47.7539 72.5586-49.5605 72.5586-51.9043C72.5586-53.2227 72.1191-54.248 71.1426-55.2246L60.6934-65.625L66.5527-71.4844C69.3848-74.3652 67.7734-78.6621 63.2324-79.248L43.0664-82.0312C39.9414-82.4707 37.793-80.2246 38.1348-77.0996L40.918-56.9336C41.5039-52.2949 45.8008-50.6836 48.7793-53.7109Z"/>
  </g>
  <g id="Medium-L" transform="matrix(1 0 0 1 1648.44 1556)">
   <path d="M35.9375 2.09961L77.2461 2.09961L77.2461 11.3281C77.2461 24.3164 84.082 31.0547 97.1191 31.0547L160.303 31.0547C173.34 31.0547 180.176 24.2676 180.176 11.3281L180.176-30.1758C180.176-43.1152 173.34-49.9023 160.303-49.9023L148.096-49.9023L148.096-81.6895C148.096-94.5801 141.26-101.367 128.223-101.367L35.9375-101.367C22.8516-101.367 16.0645-94.6289 16.0645-81.6895L16.0645-17.627C16.0645-4.63867 22.8516 2.09961 35.9375 2.09961ZM36.5723-8.64258C30.2246-8.64258 26.8066-11.9141 26.8066-18.5059L26.8066-80.7617C26.8066-87.3535 30.2246-90.625 36.5723-90.625L127.588-90.625C133.838-90.625 137.354-87.3535 137.354-80.7617L137.354-49.9023L97.1191-49.9023C84.082-49.9023 77.2461-43.1641 77.2461-30.1758L77.2461-8.64258ZM47.2656-54.1504L53.1738-60.0586L64.1113-49.1699C64.9902-48.2422 65.918-47.9004 67.041-47.9004C69.4336-47.9004 71.1914-49.6094 71.1914-51.7578C71.1914-52.9785 70.8008-53.9551 69.8242-54.8828L58.8867-65.8203L64.8438-71.7773C67.6758-74.6094 66.0156-78.5645 61.7188-79.1992L41.4551-82.2266C38.4766-82.6172 36.377-80.4688 36.7676-77.4902L39.7461-57.1777C40.332-52.832 44.3848-51.2207 47.2656-54.1504Z"/>
  </g>
  <g id="Regular-L" transform="matrix(1 0 0 1 1353.02 1556)">
   <path d="M35.0586 1.46484L77.0508 1.46484L77.0508 10.6934C77.0508 23.1934 83.4473 29.541 96.0449 29.541L158.594 29.541C171.191 29.541 177.588 23.1445 177.588 10.6934L177.588-30.4688C177.588-42.8711 171.191-49.2676 158.594-49.2676L146.045-49.2676L146.045-81.0547C146.045-93.457 139.648-99.8535 127.051-99.8535L35.0586-99.8535C22.4121-99.8535 16.0645-93.5059 16.0645-81.0547L16.0645-17.3828C16.0645-4.88281 22.4121 1.46484 35.0586 1.46484ZM35.2539-7.17773C28.418-7.17773 24.707-10.791 24.707-17.8223L24.707-80.5664C24.707-87.5977 28.418-91.2109 35.2539-91.2109L126.855-91.2109C133.545-91.2109 137.402-87.5977 137.402-80.5664L137.402-49.2676L96.0449-49.2676C83.4473-49.2676 77.0508-42.9688 77.0508-30.4688L77.0508-7.17773ZM45.2637-54.6875L51.3672-60.8398L62.9395-49.2676C63.8184-48.3887 64.6484-48.1445 65.6738-48.1445C67.8223-48.1445 69.3848-49.6582 69.3848-51.6113C69.3848-52.6855 69.043-53.5645 68.1641-54.4434L56.543-66.0156L62.6953-72.168C65.4297-74.9023 63.7695-78.5156 59.8145-79.1504L39.3555-82.4219C36.5723-82.8613 34.5703-80.8105 34.9609-78.0273L38.2324-57.5195C38.8672-53.5156 42.4805-51.8555 45.2637-54.6875Z"/>
  </g>
  <g id="Light-L" transform="matrix(1 0 0 1 1057.48 1556)">
   <path d="M34.0332 1.17188L75.8789 1.17188L75.8789 9.96094C75.8789 21.7285 82.0312 27.7832 93.8477 27.7832L157.275 27.7832C169.092 27.7832 175.244 21.6309 175.244 9.96094L175.244-31.7383C175.244-43.4082 169.092-49.5605 157.275-49.5605L144.043-49.5605L144.043-80.2246C144.043-91.8945 137.939-98.0469 126.074-98.0469L34.0332-98.0469C22.168-98.0469 16.0645-91.9922 16.0645-80.2246L16.0645-16.6504C16.0645-4.88281 22.168 1.17188 34.0332 1.17188ZM34.1797-5.41992C26.709-5.41992 22.7051-9.375 22.7051-16.9922L22.7051-79.8828C22.7051-87.5 26.709-91.4551 34.1797-91.4551L125.928-91.4551C133.252-91.4551 137.451-87.5 137.451-79.8828L137.451-49.5605L93.8477-49.5605C82.0312-49.5605 75.8789-43.5059 75.8789-31.7383L75.8789-5.41992ZM43.2129-55.9082L49.6094-62.3047L61.8164-50.0977C62.5488-49.3164 63.1836-49.1211 64.0137-49.1211C65.7227-49.1211 66.9434-50.3418 66.9434-51.9043C66.9434-52.7344 66.6504-53.4668 65.918-54.1992L53.6621-66.3574L60.0586-72.7539C62.4023-75.0977 61.0352-78.1738 57.5684-78.7109L37.8906-82.1289C35.2539-82.5684 33.4473-80.7129 33.8379-78.0762L37.1582-58.3496C37.7441-54.834 40.8691-53.5156 43.2129-55.9082Z"/>
  </g>
  <g id="Thin-L" transform="matrix(1 0 0 1 762.33 1556)">
   <path d="M32.666 0.830078L74.3652 0.830078L74.3652 8.93555C74.3652 19.7754 80.0781 25.4883 90.9668 25.4883L155.518 25.4883C166.357 25.4883 172.119 19.6289 172.119 8.93555L172.119-33.3984C172.119-44.0918 166.357-49.9512 155.518-49.9512L141.406-49.9512L141.406-79.1504C141.406-89.8438 135.693-95.7031 124.805-95.7031L32.666-95.7031C21.7773-95.7031 16.0645-89.9902 16.0645-79.1504L16.0645-15.7227C16.0645-4.88281 21.7773 0.830078 32.666 0.830078ZM32.8125-3.07617C24.4141-3.07617 19.9707-7.4707 19.9707-15.918L19.9707-78.9551C19.9707-87.4023 24.4141-91.7969 32.8125-91.7969L124.658-91.7969C132.812-91.7969 137.5-87.4023 137.5-78.9551L137.5-49.9512L90.9668-49.9512C80.0781-49.9512 74.3652-44.2383 74.3652-33.3984L74.3652-3.07617ZM40.5273-57.4707L47.2656-64.209L60.3027-51.1719C60.8887-50.5371 61.2793-50.4395 61.8164-50.4395C62.9395-50.4395 63.7207-51.2695 63.7207-52.2949C63.7207-52.7832 63.5254-53.3203 62.9883-53.8574L49.9023-66.8457L56.6406-73.584C58.3984-75.3418 57.373-77.6855 54.5898-78.1738L35.8887-81.6895C33.4961-82.1777 31.9824-80.5664 32.373-78.1738L35.791-59.4238C36.3281-56.5918 38.7207-55.6641 40.5273-57.4707Z"/>
  </g>
  <g id="Ultralight-L" transform="matrix(1 0 0 1 466.425 1556)">
   <path d="M31.9824 0.683594L73.584 0.683594L73.584 8.39844C73.584 18.75 79.1016 24.3164 89.502 24.3164L154.59 24.3164C164.99 24.3164 170.508 18.6035 170.508 8.39844L170.508-34.2285C170.508-44.4336 164.99-50.1465 154.59-50.1465L140.039-50.1465L140.039-78.6133C140.039-88.8184 134.521-94.5312 124.17-94.5312L31.9824-94.5312C21.582-94.5312 16.0645-88.9648 16.0645-78.6133L16.0645-15.2344C16.0645-4.88281 21.582 0.683594 31.9824 0.683594ZM32.1289-1.85547C23.1934-1.85547 18.6035-6.49414 18.6035-15.3809L18.6035-78.4668C18.6035-87.3535 23.1934-91.9922 32.1289-91.9922L123.975-91.9922C132.568-91.9922 137.5-87.3535 137.5-78.4668L137.5-50.1465L89.502-50.1465C79.1016-50.1465 73.584-44.6289 73.584-34.2285L73.584-1.85547ZM39.1113-58.252L46.0449-65.1855L59.5215-51.709C60.0586-51.1719 60.3027-51.123 60.7422-51.123C61.5234-51.123 62.0605-51.7578 62.0605-52.4902C62.0605-52.832 61.9141-53.2715 61.5234-53.6621L47.9492-67.0898L54.8828-73.9746C56.3477-75.4395 55.5176-77.4414 53.0273-77.9297L34.8633-81.4941C32.6172-81.9824 31.2012-80.5176 31.6406-78.2227L35.1074-59.9609C35.5957-57.5195 37.6465-56.7871 39.1113-58.252Z"/>
  </g>
  <g id="Black-M" transform="matrix(1 0 0 1 2851.12 1126)">
   <path d="M31.9824-2.97852L60.4004-2.97852L60.4004 3.75977C60.4004 16.0156 67.6758 23.291 79.9316 23.291L132.568 23.291C144.824 23.291 152.1 16.0156 152.1 3.75977L152.1-30.4688C152.1-42.7246 144.824-50 132.568-50L124.609-50L124.609-74.1211C124.609-86.377 117.334-93.7012 105.078-93.7012L31.9824-93.7012C19.7266-93.7012 12.4512-86.377 12.4512-74.1211L12.4512-22.5098C12.4512-10.2539 19.7266-2.97852 31.9824-2.97852ZM34.9121-21.2402C32.0801-21.2402 30.7617-22.3145 30.7617-25.3906L30.7617-71.2402C30.7617-74.3164 32.0801-75.3906 34.9121-75.3906L102.148-75.3906C104.98-75.3906 106.299-74.3164 106.299-71.2402L106.299-50L79.9316-50C67.6758-50 60.4004-42.7246 60.4004-30.4688L60.4004-21.2402ZM46.1426-47.5586L49.8047-51.2695L55.127-45.8984C55.957-45.0195 57.1289-44.4824 58.4961-44.4824C61.2793-44.4824 63.3789-46.4844 63.3789-49.0723C63.3789-50.4883 62.8418-51.7578 61.9141-52.6367L56.543-57.959L60.4492-61.9141C62.7441-64.209 61.7188-69.043 56.8848-69.3359L42.4805-70.3125C39.209-70.5566 37.3047-68.5547 37.4512-65.2832L38.3789-50.8301C38.6719-45.9961 43.5059-44.9707 46.1426-47.5586Z"/>
  </g>
  <g id="Heavy-M" transform="matrix(1 0 0 1 2555.98 1126)">
   <path d="M31.0059-3.80859L60.4004-3.80859L60.4004 3.07617C60.4004 14.7949 67.1875 21.5332 78.9551 21.5332L130.469 21.5332C142.236 21.5332 148.975 14.7949 148.975 3.07617L148.975-30.5664C148.975-42.2852 142.236-49.0723 130.469-49.0723L122.168-49.0723L122.168-73.4375C122.168-85.2051 115.381-91.9434 103.613-91.9434L31.0059-91.9434C19.1895-91.9434 12.4512-85.2051 12.4512-73.4375L12.4512-22.3145C12.4512-10.5957 19.1895-3.80859 31.0059-3.80859ZM33.252-19.6777C29.9316-19.6777 28.2715-21.0938 28.2715-24.6582L28.2715-71.0938C28.2715-74.6582 29.9316-76.123 33.252-76.123L101.367-76.123C104.688-76.123 106.348-74.6582 106.348-71.0938L106.348-49.0723L78.9551-49.0723C67.1875-49.0723 60.4004-42.2852 60.4004-30.5664L60.4004-19.6777ZM43.7988-48.0469L47.7051-51.9531L53.8086-45.8008C54.5898-44.9707 55.6641-44.5312 56.9336-44.5312C59.4727-44.5312 61.4746-46.3867 61.4746-48.7793C61.4746-50.0977 60.9375-51.2207 60.0586-52.0996L53.9062-58.2031L58.0078-62.3047C60.3027-64.5996 59.1797-69.043 54.6875-69.3848L39.8438-70.7031C36.8164-70.9473 34.9609-69.043 35.1562-66.0156L36.4258-51.123C36.8164-46.6309 41.2109-45.5078 43.7988-48.0469Z"/>
  </g>
  <g id="Bold-M" transform="matrix(1 0 0 1 2261 1126)">
   <path d="M29.8828-4.78516L60.4004-4.78516L60.4004 2.29492C60.4004 13.4277 66.6016 19.6289 77.832 19.6289L128.125 19.6289C139.307 19.6289 145.508 13.4277 145.508 2.29492L145.508-30.6641C145.508-41.7969 139.307-47.998 128.125-47.998L119.482-47.998L119.482-72.6562C119.482-83.8379 113.232-89.9902 102.051-89.9902L29.8828-89.9902C18.6523-89.9902 12.4512-83.8379 12.4512-72.6562L12.4512-22.1191C12.4512-10.9863 18.6523-4.78516 29.8828-4.78516ZM31.3965-17.8711C27.5391-17.8711 25.5371-19.7266 25.5371-23.8281L25.5371-70.9961C25.5371-75.0488 27.5391-76.9043 31.3965-76.9043L100.488-76.9043C104.346-76.9043 106.396-75.0488 106.396-70.9961L106.396-47.998L77.832-47.998C66.6016-47.998 60.4004-41.7969 60.4004-30.6641L60.4004-17.8711ZM41.1621-48.6328L45.3125-52.7344L52.2949-45.752C53.0762-44.9707 54.0039-44.5801 55.1758-44.5801C57.5195-44.5801 59.2773-46.2402 59.2773-48.3887C59.2773-49.6094 58.8379-50.6348 58.0078-51.4648L50.9766-58.4473L55.2734-62.6953C57.5684-65.0391 56.3477-68.9941 52.2461-69.4336L36.9141-71.1426C34.1797-71.4355 32.3242-69.5801 32.6172-66.7969L34.2773-51.4648C34.7168-47.3145 38.6719-46.0938 41.1621-48.6328Z"/>
  </g>
  <g id="Semibold-M" transform="matrix(1 0 0 1 1965.46 1126)">
   <path d="M29.1016-5.46875L60.3516-5.46875L60.3516 1.75781C60.3516 12.5 66.2109 18.2617 77.0508 18.2617L126.465 18.2617C137.305 18.2617 143.164 12.5 143.164 1.75781L143.164-30.7129C143.164-41.4551 137.305-47.2168 126.465-47.2168L117.578-47.2168L117.578-72.1191C117.578-82.8613 111.768-88.6719 100.928-88.6719L29.1016-88.6719C18.2617-88.6719 12.4512-82.9102 12.4512-72.1191L12.4512-22.0215C12.4512-11.2305 18.2617-5.46875 29.1016-5.46875ZM30.127-16.6504C25.8789-16.6504 23.6328-18.7988 23.6328-23.2422L23.6328-70.8984C23.6328-75.3418 25.8789-77.4902 30.127-77.4902L99.9023-77.4902C104.102-77.4902 106.396-75.3418 106.396-70.8984L106.396-47.2168L77.0508-47.2168C66.2109-47.2168 60.3516-41.5039 60.3516-30.7129L60.3516-16.6504ZM39.4043-48.9746L43.7012-53.2715L51.2695-45.7031C52.002-44.9219 52.8809-44.6289 53.9551-44.6289C56.1523-44.6289 57.7637-46.1426 57.7637-48.1934C57.7637-49.3164 57.373-50.2441 56.543-51.0254L48.9746-58.5938L53.3691-62.9883C55.7129-65.332 54.3945-68.9941 50.5859-69.4336L34.9121-71.4355C32.3242-71.7773 30.5664-69.9219 30.8105-67.3828L32.8125-51.6602C33.252-47.8027 36.9141-46.4844 39.4043-48.9746Z"/>
  </g>
  <g id="Medium-M" transform="matrix(1 0 0 1 1669.65 1126)">
   <path d="M28.5156-6.00586L60.3516-6.00586L60.3516 1.36719C60.3516 11.8164 65.8691 17.2852 76.4648 17.2852L125.244 17.2852C135.791 17.2852 141.357 11.8164 141.357 1.36719L141.357-30.7617C141.357-41.2109 135.791-46.6797 125.244-46.6797L116.162-46.6797L116.162-71.7285C116.162-82.1777 110.645-87.6465 100.098-87.6465L28.5156-87.6465C17.9199-87.6465 12.4512-82.1777 12.4512-71.7285L12.4512-21.9238C12.4512-11.4258 17.9199-6.00586 28.5156-6.00586ZM29.1504-15.7227C24.6582-15.7227 22.168-18.0664 22.168-22.8027L22.168-70.8496C22.168-75.5859 24.6582-77.8809 29.1504-77.8809L99.4629-77.8809C103.906-77.8809 106.445-75.5859 106.445-70.8496L106.445-46.6797L76.4648-46.6797C65.8691-46.6797 60.3516-41.2109 60.3516-30.7617L60.3516-15.7227ZM38.0371-49.2676L42.4316-53.7109L50.4883-45.7031C51.2207-44.9219 52.0508-44.6289 53.0273-44.6289C55.0781-44.6289 56.6406-46.0938 56.6406-47.998C56.6406-49.0723 56.2988-49.9023 55.4688-50.6836L47.4609-58.7402L51.9531-63.2324C54.2969-65.5762 52.8809-68.9941 49.3164-69.4824L33.3496-71.6797C30.957-71.9727 29.1992-70.2148 29.4922-67.7734L31.6895-51.8555C32.1777-48.1445 35.5957-46.7773 38.0371-49.2676Z"/>
  </g>
  <g id="Regular-M" transform="matrix(1 0 0 1 1374.14 1126)">
   <path d="M27.7832-6.64062L60.3516-6.64062L60.3516 0.830078C60.3516 10.8887 65.4785 15.9668 75.6836 15.9668L123.682 15.9668C133.838 15.9668 138.965 10.8887 138.965 0.830078L138.965-30.8105C138.965-40.8691 133.838-45.9473 123.682-45.9473L114.307-45.9473L114.307-71.1914C114.307-81.25 109.18-86.3281 99.0234-86.3281L27.7832-86.3281C17.5293-86.3281 12.4512-81.25 12.4512-71.1914L12.4512-21.7773C12.4512-11.7188 17.5293-6.64062 27.7832-6.64062ZM27.8809-14.502C22.998-14.502 20.3125-17.1387 20.3125-22.2168L20.3125-70.752C20.3125-75.8301 22.998-78.4668 27.8809-78.4668L98.877-78.4668C103.711-78.4668 106.445-75.8301 106.445-70.752L106.445-45.9473L75.6836-45.9473C65.4785-45.9473 60.3516-40.918 60.3516-30.8105L60.3516-14.502ZM36.2305-49.6582L40.8203-54.248L49.4629-45.6543C50.1953-44.9219 50.9277-44.6777 51.8066-44.6777C53.7598-44.6777 55.1758-45.9961 55.1758-47.7539C55.1758-48.7305 54.834-49.5117 54.1016-50.293L45.459-58.8867L50.0488-63.5254C52.4414-65.8691 50.9766-68.9941 47.6562-69.4824L31.3477-71.9727C29.1016-72.3145 27.3926-70.6055 27.7344-68.3594L30.2246-52.0508C30.7129-48.6328 33.8379-47.168 36.2305-49.6582Z"/>
  </g>
  <g id="Light-M" transform="matrix(1 0 0 1 1078.48 1126)">
   <path d="M26.8555-6.88477L59.3262-6.88477L59.3262 0.0976562C59.3262 9.57031 64.209 14.4043 73.7305 14.4043L122.461 14.4043C131.982 14.4043 136.865 9.52148 136.865 0.0976562L136.865-31.9336C136.865-41.3574 131.982-46.1914 122.461-46.1914L112.549-46.1914L112.549-70.459C112.549-79.834 107.666-84.7168 98.1445-84.7168L26.8555-84.7168C17.2852-84.7168 12.4512-79.9316 12.4512-70.459L12.4512-21.1426C12.4512-11.7188 17.2852-6.88477 26.8555-6.88477ZM26.9531-12.9395C21.4844-12.9395 18.5059-15.8203 18.5059-21.4844L18.5059-70.1172C18.5059-75.7812 21.4844-78.6621 26.9531-78.6621L97.998-78.6621C103.418-78.6621 106.494-75.7812 106.494-70.1172L106.494-46.1914L73.7305-46.1914C64.209-46.1914 59.3262-41.4062 59.3262-31.9336L59.3262-12.9395ZM34.4238-50.7324L39.2578-55.5664L48.4375-46.3867C49.0234-45.752 49.6094-45.5566 50.3418-45.5566C51.8555-45.5566 52.9785-46.6309 52.9785-47.998C52.9785-48.7793 52.7344-49.4141 52.0996-50.0488L42.8711-59.2285L47.7051-64.0625C49.707-66.0156 48.4863-68.6523 45.6055-69.1406L30.0293-71.7285C27.9297-72.0703 26.416-70.5078 26.709-68.4082L29.2969-52.7832C29.7363-49.8535 32.373-48.6816 34.4238-50.7324Z"/>
  </g>
  <g id="Thin-M" transform="matrix(1 0 0 1 783.18 1126)">
   <path d="M25.6348-7.17773L57.959-7.17773L57.959-0.78125C57.959 7.8125 62.5 12.3047 71.1426 12.3047L120.898 12.3047C129.541 12.3047 134.033 7.71484 134.033-0.78125L134.033-33.4473C134.033-41.9434 129.541-46.582 120.898-46.582L110.156-46.582L110.156-69.4824C110.156-78.0273 105.664-82.6172 97.0215-82.6172L25.6348-82.6172C16.9922-82.6172 12.4512-78.125 12.4512-69.4824L12.4512-20.3125C12.4512-11.7188 16.9922-7.17773 25.6348-7.17773ZM25.7324-10.8398C19.3848-10.8398 16.0645-14.1113 16.0645-20.5078L16.0645-69.2871C16.0645-75.6836 19.3848-79.0039 25.7324-79.0039L96.875-79.0039C103.027-79.0039 106.543-75.6836 106.543-69.2871L106.543-46.582L71.1426-46.582C62.5-46.582 57.959-42.041 57.959-33.4473L57.959-10.8398ZM31.9824-52.0996L37.1094-57.2754L47.0703-47.3145C47.5586-46.8262 47.9004-46.7285 48.3887-46.7285C49.4141-46.7285 50.0977-47.4609 50.0977-48.3887C50.0977-48.8281 49.9023-49.2676 49.4629-49.7559L39.502-59.6191L44.6289-64.7949C46.0938-66.2598 45.2637-68.2617 42.9199-68.6523L28.2227-71.3379C26.3672-71.6797 25.0977-70.4102 25.3906-68.5059L28.0273-53.7598C28.4668-51.416 30.4688-50.5859 31.9824-52.0996Z"/>
  </g>
  <g id="Ultralight-M" transform="matrix(1 0 0 1 487.177 1126)">
   <path d="M25-7.37305L57.2754-7.37305L57.2754-1.26953C57.2754 6.93359 61.6211 11.2793 69.8242 11.2793L120.068 11.2793C128.271 11.2793 132.617 6.78711 132.617-1.26953L132.617-34.1797C132.617-42.2852 128.271-46.7285 120.068-46.7285L108.936-46.7285L108.936-68.9941C108.936-77.0508 104.59-81.543 96.4355-81.543L25-81.543C16.7969-81.543 12.4512-77.1973 12.4512-68.9941L12.4512-19.873C12.4512-11.7188 16.7969-7.37305 25-7.37305ZM25.0977-9.76562C18.3594-9.76562 14.8438-13.2324 14.8438-20.0195L14.8438-68.8965C14.8438-75.6348 18.3594-79.1504 25.0977-79.1504L96.2891-79.1504C102.783-79.1504 106.543-75.6348 106.543-68.8965L106.543-46.7285L69.8242-46.7285C61.6211-46.7285 57.2754-42.3828 57.2754-34.1797L57.2754-9.76562ZM30.7129-52.832L36.0352-58.1543L46.3379-47.8516C46.7773-47.4121 47.0215-47.3145 47.4121-47.3145C48.1445-47.3145 48.584-47.9004 48.584-48.5352C48.584-48.8281 48.4863-49.2188 48.0957-49.5605L37.7441-59.8633L43.0664-65.1367C44.2871-66.3574 43.6035-68.0176 41.5527-68.4082L27.3438-71.1426C25.5371-71.5332 24.4141-70.3613 24.7559-68.5547L27.4414-54.248C27.7832-52.1973 29.4922-51.6113 30.7129-52.832Z"/>
  </g>
  <g id="Black-S" transform="matrix(1 0 0 1 2869.04 696)">
   <path d="M25-10.0098L47.3633-10.0098L47.3633-4.73633C47.3633 4.83398 53.0273 10.498 62.5977 10.498L103.711 10.498C113.281 10.498 118.945 4.83398 118.945-4.73633L118.945-31.4941C118.945-41.0645 113.281-46.7285 103.711-46.7285L97.4609-46.7285L97.4609-65.6738C97.4609-75.2441 91.7969-80.9082 82.2266-80.9082L25-80.9082C15.4297-80.9082 9.76562-75.2441 9.76562-65.6738L9.76562-25.2441C9.76562-15.6738 15.4297-10.0098 25-10.0098ZM27.2461-24.1699C25-24.1699 23.9258-25.0488 23.9258-27.4902L23.9258-63.4277C23.9258-65.8691 25-66.748 27.2461-66.748L79.9805-66.748C82.2266-66.748 83.3008-65.8691 83.3008-63.4277L83.3008-46.7285L62.5977-46.7285C53.0273-46.7285 47.3633-41.0645 47.3633-31.4941L47.3633-24.1699ZM35.9863-44.9219L38.8672-47.8027L43.1152-43.5547C43.75-42.8711 44.6777-42.4805 45.752-42.4805C47.9004-42.4805 49.5605-44.043 49.5605-46.0449C49.5605-47.168 49.1211-48.1445 48.3887-48.8281L44.1406-53.0762L47.2168-56.1523C49.0234-57.959 48.1934-61.7188 44.4336-61.9629L33.1055-62.7441C30.5664-62.9395 29.0527-61.377 29.1992-58.8379L29.9316-47.4609C30.1758-43.7012 33.9355-42.8711 35.9863-44.9219Z"/>
  </g>
  <g id="Heavy-S" transform="matrix(1 0 0 1 2573.41 696)">
   <path d="M24.3652-10.6445L47.4609-10.6445L47.4609-5.17578C47.4609 4.05273 52.7832 9.32617 62.0605 9.32617L102.246 9.32617C111.523 9.32617 116.797 4.05273 116.797-5.17578L116.797-31.4453C116.797-40.6738 111.523-45.9473 102.246-45.9473L95.8008-45.9473L95.8008-65.2344C95.8008-74.4629 90.4785-79.7363 81.25-79.7363L24.3652-79.7363C15.0391-79.7363 9.76562-74.4629 9.76562-65.2344L9.76562-25.1953C9.76562-15.918 15.0391-10.6445 24.3652-10.6445ZM26.0742-23.1445C23.5352-23.1445 22.2656-24.2676 22.2656-27.002L22.2656-63.4277C22.2656-66.1621 23.5352-67.2852 26.0742-67.2852L79.4922-67.2852C82.0312-67.2852 83.3008-66.1621 83.3008-63.4277L83.3008-45.9473L62.0605-45.9473C52.7832-45.9473 47.4609-40.6738 47.4609-31.4453L47.4609-23.1445ZM34.4238-45.166L37.4512-48.1934L42.1875-43.4082C42.8223-42.7734 43.7012-42.4316 44.7266-42.4316C46.7285-42.4316 48.3398-43.8965 48.3398-45.8008C48.3398-46.8262 47.9004-47.7539 47.2168-48.4375L42.4316-53.1738L45.6055-56.3965C47.4609-58.252 46.5332-61.7188 42.9688-62.0117L31.25-63.0859C28.8574-63.2812 27.3926-61.7676 27.5391-59.375L28.5645-47.6074C28.8574-44.043 32.373-43.1152 34.4238-45.166Z"/>
  </g>
  <g id="Bold-S" transform="matrix(1 0 0 1 2277.87 696)">
   <path d="M23.6328-11.377L47.5586-11.377L47.5586-5.71289C47.5586 3.17383 52.4902 8.05664 61.4258 8.05664L100.586 8.05664C109.521 8.05664 114.453 3.17383 114.453-5.71289L114.453-31.3477C114.453-40.2344 109.521-45.1172 100.586-45.1172L93.9453-45.1172L93.9453-64.6973C93.9453-73.584 89.0625-78.4668 80.127-78.4668L23.6328-78.4668C14.6484-78.4668 9.76562-73.584 9.76562-64.6973L9.76562-25.1465C9.76562-16.2598 14.6484-11.377 23.6328-11.377ZM24.8047-21.9727C21.9238-21.9727 20.3613-23.3398 20.3613-26.416L20.3613-63.4277C20.3613-66.4551 21.9238-67.8711 24.8047-67.8711L78.9551-67.8711C81.8359-67.8711 83.3496-66.4551 83.3496-63.4277L83.3496-45.1172L61.4258-45.1172C52.4902-45.1172 47.5586-40.2344 47.5586-31.3477L47.5586-21.9727ZM32.666-45.459L35.8398-48.6816L41.1621-43.3105C41.7969-42.627 42.5781-42.334 43.5547-42.334C45.459-42.334 46.9238-43.7012 46.9238-45.459C46.9238-46.4844 46.582-47.3145 45.8496-47.998L40.4785-53.3203L43.7988-56.6406C45.7031-58.5449 44.6777-61.7676 41.3574-62.1094L29.1504-63.4766C27.002-63.6719 25.4883-62.1582 25.6836-60.0098L27.0508-47.7539C27.3438-44.4336 30.5664-43.3594 32.666-45.459Z"/>
  </g>
  <g id="Semibold-S" transform="matrix(1 0 0 1 1981.99 696)">
   <path d="M23.0957-11.8652L47.6562-11.8652L47.6562-6.05469C47.6562 2.58789 52.2949 7.17773 60.9863 7.17773L99.4629 7.17773C108.154 7.17773 112.793 2.58789 112.793-6.05469L112.793-31.2988C112.793-39.9414 108.154-44.5312 99.4629-44.5312L92.6758-44.5312L92.6758-64.3555C92.6758-72.998 88.0371-77.5879 79.3457-77.5879L23.0957-77.5879C14.3555-77.5879 9.76562-72.998 9.76562-64.3555L9.76562-25.0977C9.76562-16.4551 14.3555-11.8652 23.0957-11.8652ZM23.877-21.1914C20.752-21.1914 19.0918-22.7539 19.0918-26.0254L19.0918-63.3789C19.0918-66.6992 20.752-68.2617 23.877-68.2617L78.5645-68.2617C81.6406-68.2617 83.3496-66.6992 83.3496-63.3789L83.3496-44.5312L60.9863-44.5312C52.2949-44.5312 47.6562-39.9414 47.6562-31.2988L47.6562-21.1914ZM31.4453-45.6543L34.7168-48.9746L40.4785-43.2129C41.1133-42.5781 41.8457-42.2852 42.7246-42.2852C44.5801-42.2852 45.9473-43.5547 45.9473-45.2637C45.9473-46.2402 45.6543-47.0215 44.9707-47.6562L39.1602-53.418L42.5293-56.7871C44.4824-58.7891 43.3594-61.7676 40.2344-62.1582L27.7344-63.7207C25.6836-63.9648 24.2188-62.4512 24.4141-60.4004L25.9766-47.8516C26.3184-44.6777 29.3457-43.5547 31.4453-45.6543Z"/>
  </g>
  <g id="Medium-S" transform="matrix(1 0 0 1 1685.89 696)">
   <path d="M22.7051-12.2559L47.7051-12.2559L47.7051-6.29883C47.7051 2.14844 52.1484 6.49414 60.6445 6.49414L98.584 6.49414C107.129 6.49414 111.572 2.14844 111.572-6.29883L111.572-31.2988C111.572-39.7461 107.129-44.0918 98.584-44.0918L91.6992-44.0918L91.6992-64.1113C91.6992-72.5586 87.2559-76.9043 78.7598-76.9043L22.7051-76.9043C14.1602-76.9043 9.76562-72.5586 9.76562-64.1113L9.76562-25.0488C9.76562-16.6016 14.1602-12.2559 22.7051-12.2559ZM23.1934-20.5566C19.9219-20.5566 18.0664-22.2656 18.0664-25.7324L18.0664-63.3789C18.0664-66.8457 19.9219-68.6035 23.1934-68.6035L78.2715-68.6035C81.543-68.6035 83.3984-66.8457 83.3984-63.3789L83.3984-44.0918L60.6445-44.0918C52.1484-44.0918 47.7051-39.7461 47.7051-31.2988L47.7051-20.5566ZM30.5176-45.8008L33.8867-49.2188L39.9414-43.1152C40.5762-42.4805 41.2598-42.2363 42.1387-42.2363C43.8965-42.2363 45.2148-43.5059 45.2148-45.1172C45.2148-46.0449 44.9219-46.7773 44.2383-47.4609L38.1836-53.5156L41.6016-56.9336C43.6035-58.9355 42.3828-61.8164 39.4043-62.207L26.6602-63.916C24.707-64.1602 23.2422-62.6953 23.4863-60.7422L25.1465-47.9492C25.5859-44.873 28.418-43.7012 30.5176-45.8008Z"/>
  </g>
  <g id="Regular-S" transform="matrix(1 0 0 1 1390.01 696)">
   <path d="M22.2168-12.7441L47.8027-12.7441L47.8027-6.64062C47.8027 1.5625 51.9531 5.61523 60.2539 5.61523L97.4609 5.61523C105.762 5.61523 109.912 1.5625 109.912-6.64062L109.912-31.25C109.912-39.4043 105.762-43.5059 97.4609-43.5059L90.4297-43.5059L90.4297-63.7695C90.4297-71.9727 86.2793-76.0254 77.9785-76.0254L22.2168-76.0254C13.8672-76.0254 9.76562-71.9727 9.76562-63.7695L9.76562-25C9.76562-16.7969 13.8672-12.7441 22.2168-12.7441ZM22.3145-19.7754C18.7988-19.7754 16.7969-21.6797 16.7969-25.3906L16.7969-63.3789C16.7969-67.0898 18.7988-68.9941 22.3145-68.9941L77.8809-68.9941C81.3965-68.9941 83.3984-67.0898 83.3984-63.3789L83.3984-43.5059L60.2539-43.5059C51.9531-43.5059 47.8027-39.4531 47.8027-31.25L47.8027-19.7754ZM29.2969-45.9961L32.7637-49.5117L39.2578-43.0176C39.8438-42.4316 40.5273-42.1875 41.3086-42.1875C43.0176-42.1875 44.2871-43.3594 44.2871-44.9219C44.2871-45.8008 43.9941-46.4844 43.3594-47.1191L36.8652-53.6133L40.3809-57.1289C42.3828-59.1797 41.1133-61.8164 38.3301-62.2559L25.2441-64.1602C23.3887-64.4043 21.9727-62.9883 22.2168-61.1328L24.1211-48.0469C24.5605-45.166 27.1973-43.8965 29.2969-45.9961Z"/>
  </g>
  <g id="Light-S" transform="matrix(1 0 0 1 1094.22 696)">
   <path d="M21.3867-12.9395L46.875-12.9395L46.875-7.27539C46.875 0.390625 50.7812 4.24805 58.4961 4.24805L96.4355 4.24805C104.102 4.24805 108.057 0.341797 108.057-7.27539L108.057-32.2266C108.057-39.8438 104.102-43.75 96.4355-43.75L88.8672-43.75L88.8672-63.0859C88.8672-70.7031 84.9609-74.6094 77.2461-74.6094L21.3867-74.6094C13.6719-74.6094 9.76562-70.752 9.76562-63.0859L9.76562-24.4629C9.76562-16.7969 13.6719-12.9395 21.3867-12.9395ZM21.4844-18.3594C17.4316-18.3594 15.1855-20.5078 15.1855-24.707L15.1855-62.8418C15.1855-67.041 17.4316-69.1895 21.4844-69.1895L77.1484-69.1895C81.1523-69.1895 83.4473-67.041 83.4473-62.8418L83.4473-43.75L58.4961-43.75C50.7812-43.75 46.875-39.8926 46.875-32.2266L46.875-18.3594ZM27.6855-46.9727L31.3477-50.6348L38.3301-43.7012C38.8672-43.1641 39.3555-42.9688 40.0391-42.9688C41.3574-42.9688 42.334-43.8965 42.334-45.166C42.334-45.8496 42.1387-46.3867 41.6016-46.9238L34.6191-53.9062L38.2812-57.6172C39.9902-59.3262 38.9648-61.5234 36.5234-61.9141L24.0234-63.916C22.3633-64.1602 21.0938-62.8906 21.3379-61.1816L23.291-48.7305C23.6816-46.1914 25.9277-45.166 27.6855-46.9727Z"/>
  </g>
  <g id="Thin-S" transform="matrix(1 0 0 1 798.756 696)">
   <path d="M20.3125-13.1836L45.7031-13.1836L45.7031-8.05664C45.7031-1.17188 49.3164 2.44141 56.25 2.44141L95.0195 2.44141C101.953 2.44141 105.566-1.2207 105.566-8.05664L105.566-33.5449C105.566-40.3809 101.953-44.043 95.0195-44.043L86.7676-44.043L86.7676-62.2559C86.7676-69.0918 83.1543-72.7539 76.2207-72.7539L20.3125-72.7539C13.3789-72.7539 9.76562-69.1895 9.76562-62.2559L9.76562-23.7305C9.76562-16.7969 13.3789-13.1836 20.3125-13.1836ZM20.4102-16.5039C15.625-16.5039 13.0859-19.043 13.0859-23.877L13.0859-62.1094C13.0859-66.9434 15.625-69.4336 20.4102-69.4336L76.123-69.4336C80.8105-69.4336 83.4473-66.9434 83.4473-62.1094L83.4473-44.043L56.25-44.043C49.3164-44.043 45.7031-40.4297 45.7031-33.5449L45.7031-16.5039ZM25.5371-48.1934L29.4922-52.1484L37.1582-44.5312C37.5488-44.0918 37.8906-43.9941 38.2812-43.9941C39.1602-43.9941 39.7949-44.6289 39.7949-45.459C39.7949-45.8496 39.6484-46.2891 39.2578-46.6797L31.5918-54.248L35.5469-58.252C36.8164-59.4727 36.084-61.1816 34.1797-61.5234L22.4609-63.5742C20.9473-63.8672 19.9219-62.793 20.166-61.2793L22.2168-49.5605C22.5586-47.6074 24.2676-46.9238 25.5371-48.1934Z"/>
  </g>
  <g id="Ultralight-S" transform="matrix(1 0 0 1 502.68 696)">
   <path d="M19.7754-13.3301L45.0684-13.3301L45.0684-8.49609C45.0684-1.95312 48.5352 1.46484 55.0781 1.46484L94.2871 1.46484C100.83 1.46484 104.297-2.05078 104.297-8.49609L104.297-34.2285C104.297-40.6738 100.83-44.1895 94.2871-44.1895L85.6934-44.1895L85.6934-61.8164C85.6934-68.2617 82.2266-71.7773 75.6836-71.7773L19.7754-71.7773C13.2324-71.7773 9.76562-68.3594 9.76562-61.8164L9.76562-23.3398C9.76562-16.7969 13.2324-13.3301 19.7754-13.3301ZM19.873-15.5273C14.6484-15.5273 11.9629-18.2617 11.9629-23.4375L11.9629-61.7188C11.9629-66.8945 14.6484-69.5801 19.873-69.5801L75.5859-69.5801C80.6152-69.5801 83.4961-66.8945 83.4961-61.7188L83.4961-44.1895L55.0781-44.1895C48.5352-44.1895 45.0684-40.7715 45.0684-34.2285L45.0684-15.5273ZM24.4141-48.8281L28.5645-52.9297L36.5234-44.9707C36.8652-44.6289 37.1094-44.5312 37.4023-44.5312C38.0371-44.5312 38.4766-45.0195 38.4766-45.6055C38.4766-45.8984 38.3789-46.1914 38.0859-46.5332L30.0293-54.4434L34.1797-58.5449C35.2051-59.6191 34.6191-60.9863 32.959-61.2793L21.6797-63.4277C20.2148-63.7207 19.3359-62.7441 19.5801-61.3281L21.6797-50C21.9727-48.3398 23.3887-47.8027 24.4141-48.8281Z"/>
  </g>
 </g>
</svg>
